<?xml version="1.0" standalone="no"?>
<!DOCTYPE svg PUBLIC "-//W3C//DTD SVG 20010904//EN"
 "http://www.w3.org/TR/2001/REC-SVG-20010904/DTD/svg10.dtd">
<svg version="1.0" xmlns="http://www.w3.org/2000/svg"
 width="500.000000pt" height="500.000000pt" viewBox="0 0 500.000000 500.000000"
 preserveAspectRatio="xMidYMid meet">

<g transform="translate(0.000000,500.000000) scale(0.100000,-0.100000)"
fill="#000000" stroke="none">
<path d="M2577 3295 c-104 -29 -195 -113 -242 -223 -17 -43 -20 -78 -25 -393
l-5 -346 -25 -36 c-14 -20 -44 -47 -67 -59 l-43 -23 0 -183 0 -182 43 6 c222
35 406 209 452 429 12 56 15 166 15 548 l0 477 -27 -1 c-16 0 -50 -7 -76 -14z"/>
<path d="M2042 2939 c-154 -20 -318 -139 -395 -286 -175 -335 34 -746 406
-799 l47 -6 0 185 0 185 -33 11 c-62 21 -117 102 -117 173 0 49 37 116 82 146
34 22 54 27 129 30 l89 4 -2 182 -3 181 -70 1 c-38 1 -98 -2 -133 -7z"/>
<path d="M2750 2769 l0 -181 32 6 c18 4 57 21 87 39 93 56 159 157 168 259 l6
58 -147 0 -146 0 0 -181z"/>
</g>
</svg>
